<?xml version="1.0" encoding="UTF-8"?>
<!DOCTYPE svg PUBLIC "-//W3C//DTD SVG 1.1//EN" "http://www.w3.org/Graphics/SVG/1.1/DTD/svg11.dtd">
<!-- Creator: CorelDRAW X7 -->
<svg xmlns="http://www.w3.org/2000/svg" xml:space="preserve" width="169.333mm" height="55.0332mm" version="1.1" style="shape-rendering:geometricPrecision; text-rendering:geometricPrecision; image-rendering:optimizeQuality; fill-rule:evenodd; clip-rule:evenodd"
viewBox="0 0 16933 5503"
 xmlns:xlink="http://www.w3.org/1999/xlink">
 <defs>
  <style type="text/css">
   <![CDATA[
    .fil0 {fill:black}
    .fil1 {fill:#6A3BB5}
   ]]>
  </style>
 </defs>
 <g id="Layer_x0020_1">
  <metadata id="CorelCorpID_0Corel-Layer"/>
  <g id="_2894377518672">
   <path class="fil0" d="M1794 1014l-250 1886 -245 -1876 -65 -465 -736 0 670 3627 756 0 670 -3627 -735 0 -65 455zm1000 3172l1381 0 125 -676 -760 0 0 -628c-10,6 -18,11 -25,15 -21,13 -81,49 -139,85 -83,50 -163,98 -260,164 -42,27 -96,73 -142,113 -3,2 -6,5 -9,7l-16 14c-63,53 -114,111 -155,171l0 735zm1346 -1877l0 -214 -536 0c-248,132 -467,277 -713,482 -33,27 -65,55 -97,83l0 564c19,-19 39,-37 61,-55 54,-46 126,-108 180,-144 146,-98 259,-162 403,-252 41,-25 114,-65 203,-109 -88,-95 -154,-168 -154,-169l653 -186zm-600 -345l0 -730 790 0 -125 -675 -1411 0 0 1909 3 -3c210,-174 401,-307 605,-425 45,-26 91,-51 138,-76zm1040 2222l1351 0 125 -676 -731 0 0 -1547 -745 919 0 1304zm745 -2454l0 -271c-223,46 -503,132 -745,215l0 507 77 -22 -77 122 0 368 745 -919zm0 -419l0 -754 -745 0 0 963c114,-39 234,-77 353,-111 137,-40 272,-75 392,-98zm2331 2873l130 -676 -695 0c-50,0 -65,-25 -65,-70l0 -2136c0,-45 15,-70 65,-70l695 0 -125 -675 -955 0c-240,0 -425,160 -425,445l0 2621c0,401 150,561 565,561l810 0zm1571 -451l65 451 730 0 -655 -3627 -775 0 -656 3627 731 0 65 -451 204 0 0 -735 -341 -341 371 -706 370 706 -344 345 0 731 235 0zm2076 -2541c50,0 70,30 70,75l0 1101c0,55 -15,75 -70,75l-355 0 0 -1251 355 0zm785 -165c0,-285 -150,-470 -490,-470l-1376 0 0 3627 726 0 0 -1156 95 0 322 1065 649 -303 -251 -762c210,0 325,-160 325,-320l0 -1681zm-709 3109l4 15 595 33 165 0 -115 -350 -649 302zm2355 -873l36 -139c-292,371 -603,601 -801,741l0 319 765 0 0 -921zm62 -242l208 -809c-11,22 -23,45 -35,67 -216,400 -603,751 -1000,1028l0 504c210,-149 534,-394 827,-790zm260 -1013l142 -552c13,-169 -1,-348 -43,-555 -4,-18 0,-38 13,-50 16,-16 41,-12 54,8l65 97 0 0c1,3 2,5 4,8 7,17 14,34 21,51l117 -458 -750 0 -330 1711 -325 -1711 -751 0 693 2698c121,-85 241,-177 355,-275 250,-215 472,-460 616,-726 45,-85 85,-166 119,-246zm185 -717l53 -208c-11,-33 -24,-65 -38,-98l-64 -97c29,145 45,278 49,403zm388 2893l671 0 0 -1516 390 1516 745 0 0 -3627 -745 0 0 1456 -370 -1456 -691 0 0 3627z"/>
   <path class="fil1" d="M3418 4944c-167,-173 -433,-187 -756,-633 -217,-299 -210,-800 193,-1142 54,-46 126,-108 180,-144 146,-98 259,-162 403,-252 144,-89 676,-350 881,-365 -10,97 -14,186 -20,285 -14,246 -23,179 0,279 1,4 3,13 5,19l1269 -1564c-347,11 -1162,297 -1439,417 -507,220 -838,396 -1243,733 -668,555 -1053,1293 -217,1960 152,122 532,355 744,407z"/>
   <path class="fil1" d="M14192 890c112,554 31,920 -223,1391 -336,625 -1093,1130 -1649,1418l-970 453 1602 86c-59,-95 -145,-171 -198,-264 95,-109 710,-407 1178,-1148 326,-517 597,-1207 324,-1839l-64 -97z"/>
  </g>
 </g>
</svg>
