<?xml version="1.0" encoding="UTF-8"?>
<!DOCTYPE svg PUBLIC "-//W3C//DTD SVG 1.1//EN" "http://www.w3.org/Graphics/SVG/1.1/DTD/svg11.dtd">
<!-- Creator: CorelDRAW X7 -->
<svg xmlns="http://www.w3.org/2000/svg" xml:space="preserve" width="169.333mm" height="169.333mm" version="1.1" style="shape-rendering:geometricPrecision; text-rendering:geometricPrecision; image-rendering:optimizeQuality; fill-rule:evenodd; clip-rule:evenodd"
viewBox="0 0 16933 16933"
 xmlns:xlink="http://www.w3.org/1999/xlink">
 <defs>
  <style type="text/css">
   <![CDATA[
    .fil0 {fill:black}
    .fil1 {fill:#6A3BB5}
   ]]>
  </style>
 </defs>
 <g id="Layer_x0020_1">
  <metadata id="CorelCorpID_0Corel-Layer"/>
  <path class="fil0" d="M8758 1810l-412 3112c246,-189 505,-382 780,-584 394,-289 1120,-767 1924,-1249l534 -2886 -2596 0 -230 1607zm-454 3423l-386 2911c719,-604 1913,-1500 2495,-1677l5 43 579 -3131c-731,443 -1378,871 -1741,1137 -340,249 -655,485 -952,717zm-462 2976l-307 -2349c-698,599 -1308,1214 -1937,1986l402 2174c54,-66 106,-126 155,-178 462,-488 828,-820 1288,-1274 89,-89 228,-214 399,-359zm-341 -2609l-491 -3755 -229 -1642 -2596 0 1361 7359c452,-543 899,-1011 1379,-1454 186,-172 378,-341 576,-508zm-1448 4706l498 2698 2667 0 1075 -5821c-22,-135 -43,-269 -62,-405 -269,131 -611,351 -963,600 -691,488 -1403,1082 -1671,1347 -157,155 -301,294 -441,429 -280,271 -547,528 -841,839 -79,83 -171,195 -262,313z"/>
  <path class="fil1" d="M9180 16693c-767,-510 -1766,-338 -3338,-1734 -1054,-936 -1447,-2816 -235,-4429 164,-218 377,-507 548,-688 462,-488 828,-820 1288,-1274 461,-456 2221,-1874 2970,-2101 43,370 103,708 164,1081 153,930 66,689 231,1042 8,17 23,46 38,66l3411 -6900c-1279,334 -4071,2079 -5001,2760 -1699,1244 -2783,2175 -4010,3774 -2018,2631 -2834,5710 830,7503 666,326 2272,881 3104,900z"/>
 </g>
</svg>
